<svg xmlns="http://www.w3.org/2000/svg" xmlns:xlink="http://www.w3.org/1999/xlink" viewBox="0 0 252.92 464.14"><defs><style>.a{fill:url(#a);}.b{fill:url(#b);}.c{fill:url(#c);}.d{fill:url(#d);}.e{fill:url(#e);}.f{fill:url(#f);}.g{fill:url(#g);}.h{fill:url(#h);}.i{fill:url(#i);}.j{fill:url(#j);}.k{fill:url(#k);}.l{fill:url(#l);}.m{fill:#18e835;}.n{fill:#ff6f8b;}.o{fill:url(#m);}.p{fill:url(#n);}.q{fill:url(#o);}.r{fill:url(#p);}.s{fill:url(#q);}.t{fill:url(#r);}</style><linearGradient id="a" x1="219.76" y1="29.48" x2="219.76" y2="98.2" gradientUnits="userSpaceOnUse"><stop offset="0" stop-color="#ababab"/><stop offset="0.17" stop-color="#a6a6a7"/><stop offset="0.36" stop-color="#99999a"/><stop offset="0.56" stop-color="#838384"/><stop offset="0.77" stop-color="#646466"/><stop offset="0.98" stop-color="#3c3d3f"/><stop offset="1" stop-color="#38393b"/></linearGradient><linearGradient id="b" x1="260.67" y1="34.66" x2="260.67" y2="101.88" xlink:href="#a"/><linearGradient id="c" x1="278.78" y1="8.93" x2="278.78" y2="98.2" xlink:href="#a"/><linearGradient id="d" x1="294.98" y1="15.72" x2="294.98" y2="103.86" xlink:href="#a"/><linearGradient id="e" x1="237.55" y1="64.08" x2="237.55" y2="102.96" xlink:href="#a"/><linearGradient id="f" x1="203.38" y1="49.37" x2="203.38" y2="104.1" xlink:href="#a"/><linearGradient id="g" x1="162.13" y1="233.76" x2="162.13" y2="288.48" xlink:href="#a"/><linearGradient id="h" x1="172.91" y1="245.01" x2="172.91" y2="276.77" xlink:href="#a"/><linearGradient id="i" x1="309.12" y1="228.94" x2="309.12" y2="271.77" xlink:href="#a"/><linearGradient id="j" x1="324.73" y1="217.14" x2="324.73" y2="277.4" xlink:href="#a"/><linearGradient id="k" x1="335.95" y1="253.81" x2="335.95" y2="288.74" xlink:href="#a"/><linearGradient id="l" x1="188.95" y1="223.95" x2="188.95" y2="271.24" xlink:href="#a"/><linearGradient id="m" x1="173.16" y1="170.21" x2="239.88" y2="170.21" gradientTransform="translate(30.92 -31.5) rotate(9.49)" gradientUnits="userSpaceOnUse"><stop offset="0" stop-color="#9c9c9c"/><stop offset="0.13" stop-color="#969696"/><stop offset="0.3" stop-color="#868686"/><stop offset="0.49" stop-color="#6b6b6b"/><stop offset="0.69" stop-color="#464646"/><stop offset="0.91" stop-color="#161616"/><stop offset="1"/></linearGradient><linearGradient id="n" x1="166.4" y1="159.62" x2="236.16" y2="159.62" gradientTransform="matrix(0.81, 0.33, -0.37, 0.93, 108.07, -52.72)" xlink:href="#m"/><linearGradient id="o" x1="159.56" y1="153.84" x2="231.42" y2="153.84" gradientTransform="matrix(0.59, 0.47, -0.73, 0.9, 214.65, -77.09)" xlink:href="#m"/><linearGradient id="p" x1="129.37" y1="177.16" x2="196.08" y2="177.16" gradientTransform="matrix(-0.99, 0.16, 0.16, 0.99, 421.89, -31.5)" xlink:href="#m"/><linearGradient id="q" x1="118.93" y1="175.9" x2="188.69" y2="175.9" gradientTransform="matrix(-0.81, 0.33, 0.37, 0.93, 344.73, -52.72)" xlink:href="#m"/><linearGradient id="r" x1="113.37" y1="177.54" x2="185.23" y2="177.54" gradientTransform="matrix(-0.59, 0.47, 0.73, 0.9, 238.15, -77.09)" xlink:href="#m"/></defs><title>BadCat</title><path class="a" d="M218.71,98.2h2.18s.39-4.8.29-22.9-1.08-45.82-1.08-45.82S217.33,72.61,218.71,98.2Z" transform="translate(-121.48 -8.93)"/><path class="b" d="M260,101.88h1.46s.26-4.7.19-22.41-.72-44.81-.72-44.81S259.05,76.85,260,101.88Z" transform="translate(-121.48 -8.93)"/><path class="c" d="M277.82,98.2h2s.37-6.24.28-29.76-1-59.51-1-59.51S276.55,65,277.82,98.2Z" transform="translate(-121.48 -8.93)"/><path class="d" d="M294,103.86h2s.36-6.17.27-29.38-1-58.76-1-58.76S292.75,71,294,103.86Z" transform="translate(-121.48 -8.93)"/><path class="e" d="M236.5,103h2.18s.39-2.72.29-13-1.08-25.92-1.08-25.92S235.12,88.48,236.5,103Z" transform="translate(-121.48 -8.93)"/><path class="f" d="M202.73,104.1h1.35s.24-3.83.18-18.25-.67-36.48-.67-36.48S201.87,83.71,202.73,104.1Z" transform="translate(-121.48 -8.93)"/><path class="g" d="M161.48,288.48h1.34s.25-3.83.19-18.24-.68-36.48-.68-36.48S160.62,268.1,161.48,288.48Z" transform="translate(-121.48 -8.93)"/><path class="h" d="M172.17,276.77h1.52a102.82,102.82,0,0,0,.21-10.58c-.07-8.37-.76-21.18-.76-21.18S171.21,265,172.17,276.77Z" transform="translate(-121.48 -8.93)"/><path class="i" d="M308.39,271.77h1.52s.27-3,.2-14.28-.76-28.55-.76-28.55S307.42,255.82,308.39,271.77Z" transform="translate(-121.48 -8.93)"/><path class="j" d="M323.53,277.4H326s.46-4.22.34-20.09-1.24-40.17-1.24-40.17S322,255,323.53,277.4Z" transform="translate(-121.48 -8.93)"/><path class="k" d="M335.19,288.74h1.58s.29-2.44.22-11.64-.79-23.29-.79-23.29S334.18,275.73,335.19,288.74Z" transform="translate(-121.48 -8.93)"/><path class="l" d="M188.45,271.24h1s.19-3.31.14-15.77-.51-31.52-.51-31.52S187.8,253.63,188.45,271.24Z" transform="translate(-121.48 -8.93)"/><ellipse cx="127.83" cy="192.51" rx="53.91" ry="38.39"/><path d="M267.27,284.77C249.3,265.16,255,236,255,236h-12s5.72,29.14-12.25,48.74-31.59,34.85-30.5,65.62,27.22,45.21,48.73,45.21h0c21.51,0,47.65-14.44,48.74-45.21S285.24,304.37,267.27,284.77Z" transform="translate(-121.48 -8.93)"/><path d="M204.57,216.78a74.64,74.64,0,0,0-7.81,29.45c-.95,17.16,1.77,23.56,6.26,24.92s30.91-16.34,37.17-35.81Z" transform="translate(-121.48 -8.93)"/><path d="M293.46,216.92a74.76,74.76,0,0,1,7.81,29.45c1,17.15-1.77,23.55-6.27,24.91s-30.9-16.33-37.16-35.8Z" transform="translate(-121.48 -8.93)"/><path d="M205.34,369.31s-6.73-10.87-11-37.44c-3.68-22.74-10.76-31.72-10.76-31.72l7.08-3.68s5.18,15.93,21.38,24.1Z" transform="translate(-121.48 -8.93)"/><path d="M188.77,304.18s-10.07,7-17.88,2.91c-9.32-4.88-2.91-20.36,10.26-26.23,11.8-5.27,19-.18,19.42,7S192.49,301.92,188.77,304.18Z" transform="translate(-121.48 -8.93)"/><path d="M169.53,295.31s-5.44-1.49-7.35-5.1.3-2.5,3.2-2a18.5,18.5,0,0,0,7.62-.35Z" transform="translate(-121.48 -8.93)"/><path d="M193.83,279.8s.11-5.65-2.8-8.51-2.48-.42-2.87,2.49a18.65,18.65,0,0,1-2.5,7.21Z" transform="translate(-121.48 -8.93)"/><path d="M175.74,285.54a9.47,9.47,0,0,1-3.16-5.13c-.87-3.46-.47-5.07.46-5.07s5.47,1.61,8.06,6.51Z" transform="translate(-121.48 -8.93)"/><path d="M293,369.44s6.74-10.86,11-37.44c3.68-22.73,10.76-31.72,10.76-31.72l-7.08-3.67s-5.18,15.93-21.38,24.09Z" transform="translate(-121.48 -8.93)"/><path d="M309.55,304.32s10.07,7,17.88,2.91c9.32-4.88,2.91-20.36-10.26-26.24-11.8-5.26-19-.18-19.42,7S305.83,302.05,309.55,304.32Z" transform="translate(-121.48 -8.93)"/><path d="M328.79,295.45s5.45-1.5,7.35-5.11-.3-2.5-3.2-2a18.64,18.64,0,0,1-7.62-.34Z" transform="translate(-121.48 -8.93)"/><path d="M304.5,279.93s-.12-5.65,2.79-8.5,2.49-.42,2.87,2.48a18.56,18.56,0,0,0,2.5,7.21Z" transform="translate(-121.48 -8.93)"/><path d="M322.58,285.67a9.51,9.51,0,0,0,3.17-5.12c.86-3.46.46-5.07-.46-5.07s-5.48,1.61-8.07,6.51Z" transform="translate(-121.48 -8.93)"/><path d="M220.06,128.39s-13,1.36-18.22-6.47c-6.22-9.35,7.74-20.54,23.07-19.27,13.75,1.14,17.84,9.58,14.58,16.52S224.71,128.18,220.06,128.39Z" transform="translate(-121.48 -8.93)"/><path d="M206.61,110.2s-4.32-4.2-4.25-8.56,1.57-2.18,4-.26a20,20,0,0,0,7.31,3.6Z" transform="translate(-121.48 -8.93)"/><path d="M237.32,108.17s3-5.23,1.75-9.4-2.11-1.67-4,.85a19.83,19.83,0,0,1-6,5.46Z" transform="translate(-121.48 -8.93)"/><path d="M217.45,104.25a10.12,10.12,0,0,1-.33-6.43c1-3.68,2.18-5,3-4.51s4.29,4.33,4.2,10.24Z" transform="translate(-121.48 -8.93)"/><path d="M214.44,124.36s11,10.06,1.31,64.73l18.91-3.34s-13.29-27.67-7-64.26Z" transform="translate(-121.48 -8.93)"/><path d="M278.5,128.3s13,1.36,18.22-6.47c6.21-9.36-7.74-20.54-23.08-19.27-13.74,1.13-17.84,9.57-14.58,16.52S273.85,128.09,278.5,128.3Z" transform="translate(-121.48 -8.93)"/><path d="M291.94,110.11s4.33-4.2,4.26-8.56-1.57-2.18-4.05-.26a19.87,19.87,0,0,1-7.3,3.6Z" transform="translate(-121.48 -8.93)"/><path d="M261.24,108.08s-3-5.23-1.76-9.4,2.11-1.67,4,.85a19.71,19.71,0,0,0,6,5.46Z" transform="translate(-121.48 -8.93)"/><path d="M281.11,104.16a10.2,10.2,0,0,0,.33-6.43c-1-3.68-2.18-5-3-4.51s-4.29,4.33-4.2,10.24Z" transform="translate(-121.48 -8.93)"/><path d="M284.12,124.27s-11,10.06-1.31,64.73l-18.92-3.34s13.3-27.67,7-64.26Z" transform="translate(-121.48 -8.93)"/><path d="M243.72,390.82s-5.95,59.31,41.13,77.92c37.2,14.7,73.52-10.71,80.22-36.12s-.88-53.37-29.44-57.91c-30.94-4.92-40.19,33.37-15.87,41.57,20.45,6.9,28.56-15.61,19.22-19.24s-9.53,4.35-8.64,7.8-12.38,5.2-13.4-7.08c-.89-10.53,10-14.25,19.74-12.34,10.23,2,26.45,14.34,18,45.38S305.1,470.13,281.15,456c-22.22-13.07-29-43.74-26-65.89Z" transform="translate(-121.48 -8.93)"/><path class="m" d="M247.41,176.84s2,9.69-4.77,20.11c-6.43,9.94-33,13.08-35.44.59-1.86-9.44,8.53-22.6,21.69-25.51S247,172.4,247.41,176.84Z" transform="translate(-121.48 -8.93)"/><path d="M229.78,194a10.77,10.77,0,0,0,0-14v0h0v0a10.79,10.79,0,0,0,0,14v0h0Z" transform="translate(-121.48 -8.93)"/><path class="m" d="M250.73,176.8s-2,9.69,4.76,20.1c6.44,9.95,33,13.08,35.45.59,1.86-9.44-8.54-22.6-21.7-25.5S251.09,172.35,250.73,176.8Z" transform="translate(-121.48 -8.93)"/><path d="M268.35,194a10.79,10.79,0,0,1,0-14v0h0v0a10.78,10.78,0,0,1,0,14v0h0Z" transform="translate(-121.48 -8.93)"/><path class="n" d="M252,168.21a3.35,3.35,0,0,0-5.87,0c-.86,1.74,2.93,1.73,2.93,1.73S252.84,170,252,168.21Z" transform="translate(-121.48 -8.93)"/><path class="o" d="M240,169.25s-35.34-10.67-67.86,4.63c0,0,28.84-17.25,68.71-6.39Z" transform="translate(-121.48 -8.93)"/><path class="p" d="M239.72,167.91S210.55,150,179.64,156c0,0,28-8.53,61.1,10.58Z" transform="translate(-121.48 -8.93)"/><path class="q" d="M240.85,167.93s-19.64-24.92-49-25c0,0,27.65-3.28,50.33,23.76Z" transform="translate(-121.48 -8.93)"/><path class="r" d="M257.14,168.89s35.35-10.67,67.86,4.63c0,0-28.84-17.25-68.71-6.39Z" transform="translate(-121.48 -8.93)"/><path class="s" d="M257.42,167.54s29.17-17.87,60.08-11.95c0,0-28-8.52-61.1,10.59Z" transform="translate(-121.48 -8.93)"/><path class="t" d="M256.29,167.57s19.64-24.92,49-25c0,0-27.65-3.29-50.33,23.75Z" transform="translate(-121.48 -8.93)"/><path class="m" d="M176.18,314.2l-14.68-1.05a13.9,13.9,0,0,1,3.5,10.51,12.53,12.53,0,0,1-6.15,10.4q-5.81,3.72-15.15,3.23Q132.93,336.72,127,332a14.9,14.9,0,0,1-.68-22.59q-3.89-1.53-3.69-5.22a4.9,4.9,0,0,1,1.53-3.44,4.44,4.44,0,0,1,3.44-1.24l40.3,2.1c1.74.09,2.64-.39,2.7-1.43l.06-1.28q.13-2.55,4.59-2.32,5,.26,4.74,4.67a28.17,28.17,0,0,1-.43,3.33,17.88,17.88,0,0,0-.34,3.25l.22,3.95Q179.33,314.36,176.18,314.2Zm-21.3,4.58q.31-6-11-6.56a17.4,17.4,0,0,0-8.25,1.24c-2.13,1-3.25,2.4-3.34,4.24s.86,3.43,2.88,4.61a18.62,18.62,0,0,0,8.41,2.05,16.24,16.24,0,0,0,8.09-1.28C153.7,322.05,154.78,320.61,154.88,318.78Z" transform="translate(-121.48 -8.93)"/><path class="m" d="M141.12,390.7q-2.61-4.51.2-8.23a17.16,17.16,0,0,1-9.57-7.94q-3-5.16-1.83-9.95a12.21,12.21,0,0,1,6.2-7.71q5.32-3.08,9.58-1.88t9.36,7.34a15.91,15.91,0,0,0,4.49,4,3.76,3.76,0,0,0,3.62-.3c2.43-1.41,3.05-3.15,1.84-5.23-.7-1.2-1.51-1.54-2.43-1l-1.39.8-.21.13a4.53,4.53,0,0,1-3.89.35,6,6,0,0,1-3.3-2.83,7.22,7.22,0,0,1-.88-5.47,6.52,6.52,0,0,1,3.23-4.26q3.78-2.21,8.18.08t7.86,8.27q4,7,3,11.88T168,377.33l-14.43,8.37c-1.66,1-2.29,1.77-1.91,2.42.12.22.25.44.38.66l.19.33.14.24q1.53,2.63-1.85,4.58a5.88,5.88,0,0,1-5.05.47A7.9,7.9,0,0,1,141.12,390.7ZM151.29,373l1.39-.8-.53-.57-2.06-2a11.14,11.14,0,0,0-3.88-2.91,4.06,4.06,0,0,0-3.32.57q-3.57,2.07-1.58,5.52a5,5,0,0,0,3.19,2.48,5.34,5.34,0,0,0,4.09-.68Z" transform="translate(-121.48 -8.93)"/><path class="m" d="M197.81,381.24a15.36,15.36,0,0,1,6.63,7l2.29-4.7c.8-1.67.87-2.67.19-3-.06,0-.41-.1-1-.23l-.43-.21-.43-.2c-2.1-1-2.51-2.85-1.24-5.48q2.21-4.54,6.39-2.51c.57.27,1.64.88,3.22,1.84a21.69,21.69,0,0,0,3.08,1.68l4.11,1.53c1.65.8,2,2.18,1,4.15L203.9,417.55c-1,2.12-1.12,3.38-.27,3.8l.43.21.43.2.76.38c1.82.88,2.15,2.53,1,5q-2.33,4.77-6.5,2.75a25.45,25.45,0,0,1-2.39-1.49,11.71,11.71,0,0,0-2.8-1.5L191,425.62l-.34-.17c-1.65-.8-2.09-2-1.3-3.62l.15-.31c.1-.2.18-.38.26-.53a13.42,13.42,0,0,1-11.41-.29,12.26,12.26,0,0,1-7-10q-1-7,3.39-16.06,4.48-9.26,10.67-12.85A12.46,12.46,0,0,1,197.81,381.24Zm-1.49,11q-2.37-1.16-5.15.82a16.39,16.39,0,0,0-5,6.44,19.39,19.39,0,0,0-2.33,8.33c0,2.33.83,3.87,2.41,4.64q5.16,2.51,9.91-7.27a20.23,20.23,0,0,0,2.38-8.36C198.6,394.5,197.84,393,196.32,392.23Z" transform="translate(-121.48 -8.93)"/><path class="m" d="M316.55,387.18a5.69,5.69,0,0,1-.89-3.48,4,4,0,0,0-3.7.29c-1.73,1.18-2.5,3.07-2.33,5.67a17.14,17.14,0,0,0,3.29,8.36,19.41,19.41,0,0,0,6.49,6.39c2.23,1.2,4.15,1.24,5.77.14,1.78-1.22,2.15-3.37,1.1-6.47a8.07,8.07,0,0,1-.54-4.32,5.3,5.3,0,0,1,2.36-2.94c3.14-2.14,5.79-1.61,8,1.6a12.48,12.48,0,0,1,1.69,10.63,16.54,16.54,0,0,1-7,9.64q-7.12,4.86-14.35,3.11t-12.59-9.61q-6.07-8.91-5.35-17t8.09-13.13a15.74,15.74,0,0,1,10.74-2.94,11.2,11.2,0,0,1,8.51,4.9,7.16,7.16,0,0,1,1.36,5.45A6.87,6.87,0,0,1,324,388a6.08,6.08,0,0,1-4.17,1.21A4.42,4.42,0,0,1,316.55,387.18Z" transform="translate(-121.48 -8.93)"/><path class="m" d="M373.69,351.21q-1.76,4.92-6.41,5.17a17.14,17.14,0,0,1,.13,12.43q-2,5.63-6.41,7.83a12.2,12.2,0,0,1-9.89.25q-5.79-2.06-7.62-6.09T343,358.91a15.64,15.64,0,0,0,.18-6,3.72,3.72,0,0,0-2.57-2.58c-2.64-.94-4.37-.28-5.17,2-.47,1.31-.2,2.15.8,2.51l1.51.53.24.09a4.5,4.5,0,0,1,2.78,2.74,6,6,0,0,1,0,4.34,7.17,7.17,0,0,1-3.6,4.21,6.54,6.54,0,0,1-5.34.3,8.07,8.07,0,0,1-5.23-6.3q-1.1-4.81,1.23-11.34,2.71-7.59,7.1-10t11.22,0L361.87,345c1.79.64,2.82.6,3.08-.11l.25-.72c0-.06.06-.18.13-.36l.09-.26c.68-1.91,2.25-2.43,4.69-1.55a5.84,5.84,0,0,1,3.62,3.55A7.87,7.87,0,0,1,373.69,351.21Zm-20.11,3.71-1.51-.54-.09.76-.23,2.91a11.15,11.15,0,0,0,.29,4.84,4,4,0,0,0,2.58,2.16q3.88,1.4,5.22-2.36a5,5,0,0,0-.17-4,5.34,5.34,0,0,0-3.15-2.69Z" transform="translate(-121.48 -8.93)"/><path class="m" d="M343.2,311.11l18.63-1.58c1.4-.12,2.05-.75,2-1.88s-1.11-1.81-3-1.65l-4.7.4c-2.52.22-3.88-.94-4.1-3.46-.16-1.89.26-3.22,1.27-4s3-1.29,5.87-1.54a20.23,20.23,0,0,1,8.6.69q5.94,2.26,6.63,10.29a12.77,12.77,0,0,1-2.35,9.15,10.67,10.67,0,0,1-7.94,4.1l-19.82,1.68c-1.73.15-2.55.79-2.46,1.93l.21,2.36c.22,2.58-1.05,4-3.79,4.22-1.9.16-3.24-.05-4-.65s-1.25-1.78-1.4-3.55l-.14-1.7c-.1-1.07-.65-1.56-1.65-1.48l-6.3.54c-2.57.22-4-1.75-4.39-5.91-.2-2.33,0-3.93.43-4.8s1.55-1.36,3.17-1.5l6.05-.52c1-.08,1.45-.88,1.32-2.39l-.37-4.35c-.26-3.09,1.14-4.76,4.22-5a5.36,5.36,0,0,1,3.65.59,4.09,4.09,0,0,1,1.22,3l.34,4a5.47,5.47,0,0,0,.66,2.75C341.28,311.1,342,311.21,343.2,311.11Z" transform="translate(-121.48 -8.93)"/></svg>