<?xml version="1.0" encoding="iso-8859-1"?>
<!-- Generator: Adobe Illustrator 22.0.1, SVG Export Plug-In . SVG Version: 6.00 Build 0)  -->
<svg version="1.1" id="Layer_1" xmlns="http://www.w3.org/2000/svg" xmlns:xlink="http://www.w3.org/1999/xlink" x="0px" y="0px"
	 viewBox="0 0 100.25 100.25" style="enable-background:new 0 0 100.25 100.25;" xml:space="preserve">
<g>
	<path d="M97.346,43.754L50.355,4.081c-0.562-0.475-1.387-0.471-1.945,0.008L2.4,43.624c-0.628,0.54-0.7,1.487-0.16,2.115
		c0.541,0.629,1.487,0.7,2.115,0.16L15,36.753V91.75c0,0.828,0.671,1.5,1.5,1.5h65.643c0.456,0,0.889-0.208,1.173-0.564l0.357-0.448
		C83.885,91.972,84,91.642,84,91.302V36.413l11.41,9.633c0.281,0.238,0.625,0.354,0.967,0.354c0.427,0,0.851-0.181,1.147-0.532
		C98.059,45.234,97.979,44.288,97.346,43.754z M81,90.25H18v-55.5c0-0.175-0.036-0.341-0.091-0.497L49.396,7.197L81,33.88V90.25z"/>
	<path d="M41.879,50.966c0.212,0,0.425-0.014,0.64-0.04c1.416-0.178,2.708-0.938,3.641-2.141c1.153-1.489,1.663-3.518,1.398-5.567
		c0,0,0,0,0,0c-0.496-3.834-3.554-6.623-6.824-6.21c-1.415,0.177-2.708,0.937-3.64,2.14c-1.153,1.489-1.663,3.518-1.398,5.568
		C36.158,48.298,38.861,50.966,41.879,50.966z M39.465,40.984c0.312-0.402,0.849-0.901,1.642-1c0.089-0.011,0.177-0.017,0.266-0.017
		c1.511,0,2.945,1.592,3.209,3.634c0.164,1.264-0.126,2.484-0.794,3.347c-0.311,0.402-0.849,0.902-1.642,1.001
		c-1.608,0.206-3.196-1.456-3.475-3.618C38.507,43.066,38.797,41.847,39.465,40.984z"/>
	<path d="M56.902,50.911c0.25,0.036,0.499,0.055,0.745,0.055c2.973,0,5.67-2.593,6.202-6.126c0.309-2.048-0.158-4.091-1.281-5.605
		c-0.904-1.221-2.178-2.007-3.585-2.213c-3.24-0.475-6.37,2.245-6.947,6.072c-0.308,2.048,0.16,4.091,1.282,5.605
		C54.223,49.918,55.496,50.704,56.902,50.911z M55.003,43.539c0.304-2.02,1.744-3.573,3.235-3.573c0.104,0,0.206,0.007,0.31,0.022
		c0.785,0.116,1.309,0.625,1.61,1.032c0.651,0.878,0.915,2.107,0.725,3.373c-0.325,2.158-1.94,3.781-3.544,3.55
		c-0.785-0.116-1.309-0.625-1.61-1.031C55.077,46.033,54.812,44.804,55.003,43.539z"/>
	<path d="M68.978,58.978c0.545,0.197,1.116,0.296,1.695,0.296c0.799,0,1.611-0.188,2.384-0.558c1.712-0.819,3.09-2.446,3.781-4.463
		c1.263-3.687-0.178-7.58-3.211-8.68c-1.297-0.471-2.745-0.377-4.08,0.261c-1.712,0.82-3.09,2.446-3.781,4.463
		C64.502,53.983,65.942,57.878,68.978,58.978z M68.604,51.27c0.426-1.242,1.263-2.262,2.239-2.73
		c0.281-0.135,0.662-0.264,1.086-0.264c0.217,0,0.444,0.034,0.676,0.118c1.48,0.537,2.119,2.775,1.396,4.887
		c-0.426,1.242-1.263,2.263-2.239,2.73c-0.426,0.203-1.078,0.394-1.762,0.146C68.519,55.62,67.879,53.382,68.604,51.27z"/>
	<path d="M32,71.343v0.216c0,5.525,4.778,9.691,11.115,9.691h12.924C62.391,81.25,67,77.174,67,71.559v-0.216
		c0-9.028-7.851-16.373-17.5-16.373S32,62.314,32,71.343z M49.5,57.97c7.995,0,14.5,5.999,14.5,13.373v0.216
		c0,3.877-3.348,6.691-7.961,6.691H43.115c-4.702,0-8.115-2.814-8.115-6.691v-0.216C35,63.969,41.505,57.97,49.5,57.97z"/>
	<path d="M34.484,50.297c-0.691-2.017-2.069-3.644-3.781-4.463c-1.333-0.638-2.782-0.732-4.08-0.261
		c-3.033,1.1-4.474,4.994-3.21,8.68c0.691,2.017,2.069,3.644,3.78,4.463c0.773,0.37,1.585,0.558,2.385,0.558
		c0.579,0,1.151-0.099,1.696-0.296C34.308,57.878,35.748,53.983,34.484,50.297z M30.251,56.157
		c-0.684,0.247-1.337,0.057-1.763-0.147c-0.976-0.467-1.812-1.487-2.238-2.729c-0.724-2.112-0.085-4.351,1.395-4.887
		c0.686-0.249,1.337-0.057,1.763,0.146c0.976,0.468,1.813,1.488,2.239,2.73C32.37,53.383,31.731,55.62,30.251,56.157z"/>
</g>
</svg>
