<?xml version="1.0" encoding="iso-8859-1"?>
<!-- Generator: Adobe Illustrator 22.0.1, SVG Export Plug-In . SVG Version: 6.00 Build 0)  -->
<svg version="1.1" id="Layer_1" xmlns="http://www.w3.org/2000/svg" xmlns:xlink="http://www.w3.org/1999/xlink" x="0px" y="0px"
	 viewBox="0 0 101.125 100.25" style="enable-background:new 0 0 101.125 100.25;" xml:space="preserve">
<g>
	<path d="M26.117,49.205c5.196,0,9.509-3.871,10.223-8.955h29.68c0.69,5.051,5.018,8.955,10.235,8.955
		c5.696,0,10.331-4.653,10.331-10.372c0-2.408-0.847-4.737-2.359-6.583c1.513-1.846,2.359-4.174,2.359-6.582
		c0-5.719-4.635-10.372-10.331-10.372c-5.196,0-9.509,3.871-10.224,8.954H36.352c-0.691-5.051-5.018-8.954-10.235-8.954
		c-5.697,0-10.331,4.653-10.331,10.372c0,2.408,0.846,4.737,2.36,6.582c-1.514,1.847-2.36,4.175-2.36,6.583
		C15.786,44.552,20.42,49.205,26.117,49.205z M21.218,31.138c-1.545-1.4-2.432-3.394-2.432-5.47c0-4.065,3.289-7.372,7.331-7.372
		s7.331,3.307,7.333,7.292c-0.003,0.04-0.007,0.122-0.007,0.162c0,0.829,0.671,1.5,1.5,1.5h32.484c0.828,0,1.496-0.753,1.496-1.582
		c0-4.065,3.289-7.372,7.331-7.372s7.331,3.307,7.331,7.372c0,2.076-0.887,4.07-2.432,5.471c-0.314,0.284-0.493,0.688-0.493,1.111
		s0.179,0.827,0.493,1.111c1.545,1.401,2.432,3.395,2.432,5.472c0,4.065-3.289,7.372-7.331,7.372s-7.331-3.307-7.333-7.308
		c0.003-0.035,0.006-0.112,0.006-0.147c0-0.829-0.672-1.5-1.5-1.5H34.944c-0.829,0-1.496,0.754-1.496,1.583
		c0,4.065-3.289,7.372-7.331,7.372s-7.331-3.307-7.331-7.372c0-2.077,0.886-4.071,2.432-5.472c0.314-0.284,0.493-0.688,0.493-1.111
		C21.711,31.826,21.532,31.422,21.218,31.138z"/>
	<path d="M32.937,12.538c0.368,0,0.737-0.135,1.027-0.407c4.524-4.252,10.583-6.593,17.06-6.593c6.387,0,12.388,2.288,16.896,6.441
		c0.609,0.562,1.559,0.522,2.12-0.086c0.561-0.609,0.522-1.559-0.087-2.12c-5.064-4.666-11.786-7.235-18.929-7.235
		c-7.244,0-14.032,2.63-19.115,7.407c-0.604,0.567-0.633,1.517-0.066,2.121C32.138,12.379,32.537,12.538,32.937,12.538z"/>
	<path d="M92.268,81.313L71.636,50.696c-0.265-0.393-0.698-0.637-1.171-0.66c-0.464-0.027-0.929,0.178-1.229,0.543
		c-4.896,5.926-11.363,9.189-18.21,9.189c-6.769,0-13.267-2.867-17.829-7.866c-0.126-0.139-0.272-0.248-0.43-0.328
		c-0.086-0.104-0.187-0.198-0.303-0.278c-0.681-0.475-1.615-0.306-2.088,0.376L9.791,81.296c-0.352,0.507-0.358,1.178-0.014,1.69
		c0.343,0.512,0.963,0.761,1.569,0.63l16.891-3.728l3.101,15.932c0.121,0.624,0.622,1.104,1.25,1.197
		c0.075,0.012,0.148,0.017,0.222,0.017c0.548,0,1.061-0.301,1.324-0.796l16.89-31.774l16.901,31.774
		c0.298,0.562,0.921,0.875,1.546,0.779c0.628-0.094,1.129-0.573,1.251-1.196l3.104-15.932L90.7,83.616
		c0.597,0.129,1.218-0.114,1.563-0.621C92.608,82.488,92.61,81.822,92.268,81.313z M33.474,91.091l-2.585-13.284
		c-0.077-0.397-0.311-0.746-0.649-0.968c-0.246-0.162-0.533-0.246-0.823-0.246c-0.108,0-0.216,0.012-0.323,0.035l-14.652,3.233
		l17.398-25.039c4.493,4.49,10.442,7.264,16.748,7.836L33.474,91.091z M72.971,76.628c-0.391-0.087-0.808-0.012-1.146,0.211
		c-0.339,0.222-0.573,0.57-0.65,0.967l-2.588,13.287l-15.13-28.444c6.244-0.622,12.08-3.631,16.777-8.663l17.448,25.892
		L72.971,76.628z"/>
</g>
</svg>
