<?xml version="1.0" encoding="iso-8859-1"?>
<!-- Generator: Adobe Illustrator 22.0.1, SVG Export Plug-In . SVG Version: 6.00 Build 0)  -->
<svg version="1.1" id="Layer_1" xmlns="http://www.w3.org/2000/svg" xmlns:xlink="http://www.w3.org/1999/xlink" x="0px" y="0px"
	 viewBox="0 0 100.25 100.25" style="enable-background:new 0 0 100.25 100.25;" xml:space="preserve">
<g>
	<path d="M84.672,11.457c-0.512-0.64-1.438-0.751-2.089-0.251l-17.22,13.294l-9.799-9.2c-0.573-0.539-1.467-0.542-2.046-0.007
		l-8.307,7.694c-2.759-4.431-7.348-7.688-12.901-8.541c-10.086-1.548-19.565,5.401-21.116,15.495
		c-0.101,0.66-0.162,1.317-0.192,1.969L2.838,39.56c-0.418,0.393-0.577,0.989-0.407,1.538s0.637,0.952,1.204,1.04l11,1.701
		c0.018,0.003,0.036,0.002,0.054,0.004c0.001,0.001,0.001,0.002,0.002,0.003C14.237,46.319,14,48.856,14,51.393
		c0,22.883,18.617,41.5,41.5,41.5c22.483,0,40.712-18.207,41.499-41.449C97.774,28.548,86.016,13.138,84.672,11.457z M54.531,18.443
		l8.427,7.913L47.051,38.637c0.331-0.988,0.591-2.012,0.754-3.076c0.528-3.436,0.051-6.791-1.181-9.795L54.531,18.443z
		 M14.204,30.401c1.174-7.642,7.782-13.128,15.287-13.128c0.778,0,1.566,0.059,2.358,0.181c8.435,1.295,14.243,9.211,12.948,17.645
		c-1.295,8.435-9.21,14.241-17.645,12.948C18.717,46.751,12.909,38.835,14.204,30.401z M7.138,39.643l4.105-3.847
		c0.275,1.642,0.764,3.223,1.451,4.706L7.138,39.643z M94.001,51.342C93.269,72.959,76.356,89.893,55.5,89.893
		c-21.229,0-38.5-17.271-38.5-38.5c0-1.586,0.107-3.17,0.299-4.738c2.565,2.258,5.769,3.845,9.39,4.401
		c0.949,0.146,1.89,0.216,2.822,0.216c5.049,0,9.76-2.076,13.166-5.519c0.1-0.046,0.198-0.102,0.289-0.172l40.247-31.071
		C86.178,18.649,94.648,32.226,94.001,51.342z"/>
	<circle cx="24" cy="31.25" r="2"/>
</g>
</svg>
