<?xml version="1.0" encoding="iso-8859-1"?>
<!-- Generator: Adobe Illustrator 22.0.1, SVG Export Plug-In . SVG Version: 6.00 Build 0)  -->
<svg version="1.1" id="Layer_1" xmlns="http://www.w3.org/2000/svg" xmlns:xlink="http://www.w3.org/1999/xlink" x="0px" y="0px"
	 viewBox="0 0 100.25 100.25" style="enable-background:new 0 0 100.25 100.25;" xml:space="preserve">
<g>
	<path d="M52.041,63.618c-1.578-0.284-3.16-0.21-4.666,0.181L33.253,42.583c0.028-0.157,0.026-0.315,0.004-0.471l17.24-26.271
		c0.455-0.692,0.262-1.622-0.431-2.077c-0.691-0.454-1.622-0.261-2.077,0.431L31.293,39.638L14.755,14.794
		c-0.459-0.69-1.391-0.877-2.08-0.417c-0.69,0.459-0.876,1.39-0.417,2.08l17.486,26.27L16.242,64.043
		c-1.392-0.273-2.837-0.272-4.271,0.019c-2.895,0.589-5.383,2.284-7.002,4.769C1.6,73.957,2.987,80.882,8.057,84.265
		c1.825,1.227,3.922,1.862,6.066,1.862c0.726,0,1.457-0.073,2.185-0.221c2.9-0.587,5.396-2.285,7.028-4.781
		c0-0.001,0.001-0.001,0.001-0.002c3.334-5.113,1.937-12.032-3.114-15.424c-0.349-0.235-0.711-0.441-1.078-0.632L31.564,45.46
		l12.99,19.515c-0.245,0.145-0.489,0.292-0.725,0.458c-4.979,3.501-6.228,10.45-2.785,15.491c0.001,0.001,0.001,0.003,0.002,0.004
		c1.689,2.459,4.222,4.104,7.13,4.63c0.655,0.119,1.311,0.178,1.962,0.178c2.219,0,4.384-0.68,6.249-1.985
		c4.978-3.504,6.224-10.457,2.776-15.501C57.479,65.788,54.948,64.145,52.041,63.618z M20.824,79.484
		c-1.19,1.818-3.005,3.055-5.112,3.482c-2.085,0.422-4.209-0.001-5.986-1.195c-3.708-2.474-4.717-7.539-2.247-11.297
		c1.181-1.812,2.989-3.045,5.091-3.472c0.529-0.108,1.061-0.161,1.588-0.161c1.552,0,3.07,0.46,4.392,1.348
		C22.247,70.672,23.266,75.738,20.824,79.484z M54.664,81.294c-1.747,1.224-3.859,1.691-5.953,1.311
		c-2.114-0.382-3.957-1.58-5.19-3.374c-2.522-3.693-1.611-8.783,2.032-11.344c1.748-1.227,3.864-1.692,5.953-1.316
		c2.113,0.382,3.953,1.58,5.182,3.372C59.214,73.638,58.305,78.731,54.664,81.294z"/>
	<path d="M95.5,26c0.828,0,1.5-0.671,1.5-1.5S96.328,23,95.5,23H71v-7h24.5c0.828,0,1.5-0.671,1.5-1.5S96.328,13,95.5,13h-26
		c-0.828,0-1.5,0.671-1.5,1.5v69c0,0.828,0.672,1.5,1.5,1.5h26c0.828,0,1.5-0.672,1.5-1.5S96.328,82,95.5,82H71v-8h24.5
		c0.828,0,1.5-0.672,1.5-1.5S96.328,71,95.5,71H71v-9h24.5c0.828,0,1.5-0.672,1.5-1.5S96.328,59,95.5,59H71v-9h24.5
		c0.828,0,1.5-0.672,1.5-1.5c0-0.829-0.672-1.5-1.5-1.5H71v-9h24.5c0.828,0,1.5-0.671,1.5-1.5S96.328,35,95.5,35H71v-9H95.5z"/>
</g>
</svg>
