<?xml version="1.0" encoding="iso-8859-1"?>
<!-- Generator: Adobe Illustrator 22.0.1, SVG Export Plug-In . SVG Version: 6.00 Build 0)  -->
<svg version="1.1" id="Layer_1" xmlns="http://www.w3.org/2000/svg" xmlns:xlink="http://www.w3.org/1999/xlink" x="0px" y="0px"
	 viewBox="0 0 101.125 100.25" style="enable-background:new 0 0 101.125 100.25;" xml:space="preserve">
<path d="M94,59.625c0-3.584-2.916-6.5-6.5-6.5s-6.5,2.916-6.5,6.5c0,3.067,2.138,5.638,5,6.318V88.25H35V58.625
	c13.917-0.772,25-12.213,25-26.169c0-6.584-2.479-12.88-6.978-17.727c-0.284-0.306-0.683-0.479-1.1-0.479H44v-5.5
	c0-0.829-0.671-1.5-1.5-1.5S41,7.921,41,8.75v14c0,0.829,0.671,1.5,1.5,1.5s1.5-0.671,1.5-1.5v-5.5h7.257
	C54.965,21.472,57,26.846,57,32.456c0,12.8-10.542,23.214-23.5,23.214S10,45.256,10,32.456c0-5.649,2.089-10.893,6.05-15.206H23v5.5
	c0,0.829,0.671,1.5,1.5,1.5s1.5-0.671,1.5-1.5v-14c0-0.829-0.671-1.5-1.5-1.5S23,7.921,23,8.75v5.5h-7.598
	c-0.407,0-0.797,0.166-1.08,0.459C9.532,19.676,7,25.813,7,32.456c0,13.956,11.083,25.397,25,26.169V89.75
	c0,0.828,0.671,1.5,1.5,1.5h54c0.828,0,1.5-0.672,1.5-1.5V65.943C91.862,65.263,94,62.692,94,59.625z M87.5,63.125
	c-1.93,0-3.5-1.57-3.5-3.5s1.57-3.5,3.5-3.5s3.5,1.57,3.5,3.5S89.43,63.125,87.5,63.125z"/>
</svg>
