<?xml version="1.0" encoding="iso-8859-1"?>
<!-- Generator: Adobe Illustrator 21.1.0, SVG Export Plug-In . SVG Version: 6.00 Build 0)  -->
<svg version="1.1" id="Layer_1" xmlns="http://www.w3.org/2000/svg" xmlns:xlink="http://www.w3.org/1999/xlink" x="0px" y="0px"
	 viewBox="0 0 100.841 100.353" style="enable-background:new 0 0 100.841 100.353;" xml:space="preserve">
<g>
	<path d="M14.9,52.988c-4.55,0-8.251,3.896-8.251,8.685c0,2.505,0.992,8.33,10.178,8.33h0.115c0.829,0,1.5-0.672,1.5-1.5
		s-0.671-1.5-1.5-1.5h-0.115c-4.763,0-7.178-1.793-7.178-5.33c0-3.135,2.355-5.685,5.251-5.685c1.248,0,2.476,0.556,3.458,1.564
		c1.222,1.255,1.896,3.028,1.847,4.866c-0.022,0.828,0.632,1.517,1.46,1.538c0.831,0.05,1.517-0.631,1.539-1.46
		c0.069-2.642-0.914-5.207-2.697-7.038C18.955,53.866,16.964,52.988,14.9,52.988z"/>
	<path d="M100.166,45.487c-0.211-0.602-0.778-1.005-1.416-1.005h-40.7c0.88-2.176,1.236-4.752,1.236-6.72
		c0-8.009-5.596-13.821-13.305-13.821c-2.912,0-5.775,0.99-8.106,2.794c-0.094,0.043-0.185,0.096-0.27,0.159L6.976,49.487
		c-0.135,0.1-0.242,0.221-0.333,0.351c-3.338,2.753-5.498,7.036-5.498,11.852c0,8.103,6.095,14.728,13.689,15.018
		c0.16,0.059,0.333,0.091,0.513,0.092l46.416,0.163c0.001,0,0.003,0,0.005,0c0.34,0,0.669-0.115,0.935-0.327l36.982-29.48
		C100.184,46.757,100.376,46.088,100.166,45.487z M39.075,29.537c0.139-0.056,0.27-0.134,0.388-0.231
		c1.878-1.547,4.132-2.365,6.518-2.365c5.971,0,10.305,4.551,10.305,10.821c0,2.363-0.599,5.562-1.895,7.191L29.41,63.875
		c0.099-0.719,0.149-1.448,0.149-2.186c0-8.118-6.116-14.737-13.727-15.008L39.075,29.537z M61.245,73.96l-45.397-0.159
		c-0.155-0.055-0.322-0.084-0.496-0.084c-6.18,0-11.208-5.396-11.208-12.027c0-6.636,5.028-12.034,11.208-12.034
		s11.207,5.398,11.207,12.034c0,1.794-0.363,3.528-1.079,5.154c-0.072,0.165-0.113,0.335-0.124,0.505
		c-0.112,0.43-0.033,0.904,0.255,1.285c0.5,0.661,1.441,0.79,2.102,0.29L56.02,47.482h38.442L61.245,73.96z"/>
</g>
</svg>
